<svg xmlns="http://www.w3.org/2000/svg" version="1.1" width="90px" height="90px" style="shape-rendering:geometricPrecision; text-rendering:geometricPrecision; image-rendering:optimizeQuality; fill-rule:evenodd; clip-rule:evenodd; background: none;" xmlns:xlink="http://www.w3.org/1999/xlink">
  <g><path style="opacity:0.879" fill="#fefffe" d="M 71.5,8.5 C 74.8123,11.1456 77.8123,14.1456 80.5,17.5C 77.8496,20.6511 75.0162,23.6511 72,26.5C 71.5045,24.5273 71.3379,22.5273 71.5,20.5C 69.1432,20.3367 66.8098,20.5034 64.5,21C 61.6415,24.3579 58.9749,27.8579 56.5,31.5C 53.2152,32.3236 49.8818,32.8236 46.5,33C 43.8333,35.6667 41.1667,38.3333 38.5,41C 31.4588,40.1665 25.4588,42.1665 20.5,47C 17.4459,47.8214 14.4459,47.6548 11.5,46.5C 10.1667,45.1667 10.1667,43.8333 11.5,42.5C 15.9046,41.1302 19.9046,38.9635 23.5,36C 26.8333,35.6667 30.1667,35.3333 33.5,35C 36.1667,32.3333 38.8333,29.6667 41.5,27C 44.8333,26.6667 48.1667,26.3333 51.5,26C 54.3585,22.6421 57.0251,19.1421 59.5,15.5C 63.4454,14.5091 67.4454,14.1758 71.5,14.5C 71.5,12.5 71.5,10.5 71.5,8.5 Z"/></g>
  <g><path style="opacity:0.992" fill="#fefffe" d="M 65.5,32.5 C 69.5,32.5 73.5,32.5 77.5,32.5C 77.5,47.5 77.5,62.5 77.5,77.5C 73.5,77.5 69.5,77.5 65.5,77.5C 65.5,62.5 65.5,47.5 65.5,32.5 Z"/></g>
  <g><path style="opacity:0.99" fill="#fefffe" d="M 47.5,41.5 C 51.5,41.5 55.5,41.5 59.5,41.5C 59.5,53.5 59.5,65.5 59.5,77.5C 55.5,77.5 51.5,77.5 47.5,77.5C 47.5,65.5 47.5,53.5 47.5,41.5 Z"/></g>
  <g><path style="opacity:0.987" fill="#fefffe" d="M 29.5,50.5 C 33.5,50.5 37.5,50.5 41.5,50.5C 41.5,59.5 41.5,68.5 41.5,77.5C 37.5,77.5 33.5,77.5 29.5,77.5C 29.5,68.5 29.5,59.5 29.5,50.5 Z"/></g>
  <g><path style="opacity:0.981" fill="#fefffe" d="M 11.5,59.5 C 15.5,59.5 19.5,59.5 23.5,59.5C 23.5,65.5 23.5,71.5 23.5,77.5C 19.5,77.5 15.5,77.5 11.5,77.5C 11.5,71.5 11.5,65.5 11.5,59.5 Z"/></g>
</svg>