<svg width="400" height="400" viewBox="0 0 400 400" fill="none" xmlns="http://www.w3.org/2000/svg">
<rect width="400" height="400" fill="#ECEDE8"/>
<path d="M320.928 228.123H362.587C362.032 240.184 358.778 250.817 352.827 260.022C346.876 269.227 338.623 276.408 328.069 281.566C317.595 286.644 305.216 289.183 290.933 289.183C279.348 289.183 268.992 287.239 259.867 283.351C250.821 279.463 243.124 273.869 236.776 266.568C230.507 259.268 225.706 250.42 222.373 240.025C219.12 229.63 217.493 217.926 217.493 204.912V195.509C217.493 182.496 219.199 170.791 222.611 160.396C226.103 149.922 231.023 141.034 237.371 133.734C243.798 126.354 251.495 120.721 260.462 116.832C269.429 112.944 279.387 111 290.338 111C305.414 111 318.15 113.698 328.545 119.094C338.94 124.49 346.995 131.909 352.708 141.352C358.421 150.715 361.794 161.388 362.825 173.37H321.166C321.007 166.863 319.896 161.428 317.833 157.063C315.77 152.62 312.516 149.287 308.073 147.065C303.629 144.843 297.717 143.732 290.338 143.732C285.18 143.732 280.696 144.685 276.888 146.589C273.079 148.493 269.905 151.509 267.365 155.635C264.826 159.761 262.922 165.118 261.652 171.704C260.462 178.211 259.867 186.066 259.867 195.271V204.912C259.867 214.117 260.422 221.973 261.533 228.48C262.644 234.986 264.429 240.303 266.889 244.429C269.349 248.556 272.523 251.611 276.412 253.594C280.379 255.499 285.22 256.451 290.933 256.451C297.281 256.451 302.637 255.459 307.001 253.475C311.366 251.412 314.738 248.317 317.119 244.191C319.499 239.986 320.769 234.629 320.928 228.123Z" fill="#030303"/>
<path d="M116.272 245.977L152.337 113.5H199.115L140.673 286.803H110.44L116.272 245.977ZM83.5395 113.5L119.605 245.977L125.675 286.803H95.0852L37 113.5H83.5395Z" fill="#030303"/>
</svg>
