<svg width="1372" height="835" viewBox="0 0 1372 835" fill="none" xmlns="http://www.w3.org/2000/svg">
<path d="M0 780.914H1371.61" stroke="#CCCCCC" stroke-opacity="0.18"/>
<path d="M0 624.609H1371.61" stroke="#CCCCCC" stroke-opacity="0.18"/>
<path d="M0 468.914H1371.61" stroke="#CCCCCC" stroke-opacity="0.18"/>
<path d="M0 312.609H1371.61" stroke="#CCCCCC" stroke-opacity="0.18"/>
<path d="M0 156.305H1371.61" stroke="#CCCCCC" stroke-opacity="0.18"/>
<path d="M124.691 0V835" stroke="#CCCCCC" stroke-opacity="0.18"/>
<path d="M249.383 0V835" stroke="#CCCCCC" stroke-opacity="0.18"/>
<path d="M374.074 0V835" stroke="#CCCCCC" stroke-opacity="0.18"/>
<path d="M498.767 0V835" stroke="#CCCCCC" stroke-opacity="0.18"/>
<path d="M623.458 0V835" stroke="#CCCCCC" stroke-opacity="0.18"/>
<path d="M748.149 0V835" stroke="#CCCCCC" stroke-opacity="0.18"/>
<path d="M872.841 0V835" stroke="#CCCCCC" stroke-opacity="0.18"/>
<path d="M997.533 0V835" stroke="#CCCCCC" stroke-opacity="0.18"/>
<path d="M1122.22 0V835" stroke="#CCCCCC" stroke-opacity="0.18"/>
<path d="M1246.92 0V835" stroke="#CCCCCC" stroke-opacity="0.18"/>
<path d="M80.467 42.3726L72.8396 35.9056L59.9056 51.1604L67.533 57.6274L80.467 42.3726ZM366.5 298L360.033 305.627L364.107 309.081L369.243 307.616L366.5 298ZM515.5 255.5L523.34 249.293L519.189 244.049L512.757 245.884L515.5 255.5ZM601 363.5L593.16 369.707L596.733 374.221L602.431 373.397L601 363.5ZM853.5 327L862.734 323.161L859.753 315.992L852.069 317.103L853.5 327ZM1278 745.5L1277.87 630.03L1177.94 687.877L1278 745.5ZM948.5 555.5L939.266 559.339L942.63 567.43L951.092 565.158L948.5 555.5ZM1138.5 504.5L1147.15 499.49L1143.31 492.854L1135.91 494.842L1138.5 504.5ZM67.533 57.6274L360.033 305.627L372.967 290.373L80.467 42.3726L67.533 57.6274ZM369.243 307.616L518.243 265.116L512.757 245.884L363.757 288.384L369.243 307.616ZM507.66 261.707L593.16 369.707L608.84 357.293L523.34 249.293L507.66 261.707ZM602.431 373.397L854.931 336.897L852.069 317.103L599.569 353.603L602.431 373.397ZM844.266 330.839L939.266 559.339L957.734 551.661L862.734 323.161L844.266 330.839ZM951.092 565.158L1141.09 514.158L1135.91 494.842L945.908 545.842L951.092 565.158ZM1129.85 509.51L1224.26 672.618L1241.57 662.598L1147.15 499.49L1129.85 509.51Z" fill="#A0E6EE" fill-opacity="0.2"/>
</svg>
